# xmcd
# 
# Track frame offsets:
#     150
#     18677
#     41962
#     58436
#     82820
#     105244
#     126751
#     146419
#     167733
#     188170
#     210594
#     229198
#     248523
#     269441
#     291652
#     312149
# 
# Disc length: 4417
# 
# Revision: 4
# Processed by: cddbd v1.5.2PL0 Copyright (c) Steve Scherf et al.
# Submitted via: fre:ac v1.0.27
# 
DISCID=e8113f10
DTITLE=坂本冬美 - スーパーベスト
DYEAR=2011
DGENRE=演歌
TTITLE0=桜の如く
TTITLE1=ふたりの大漁節
TTITLE2=北の挽歌
TTITLE3=夜桜お七
TTITLE4=蛍の提灯
TTITLE5=アジアの海賊
TTITLE6=また君に恋してる
TTITLE7=ずっとあなたが好きでした
TTITLE8=百年先も手をとりながら
TTITLE9=風に立つ
TTITLE10=祝い酒
TTITLE11=男の情話
TTITLE12=能登はいらんかいね
TTITLE13=紀ノ川
TTITLE14=火の国の女
TTITLE15=あばれ太鼓
EXTD=
EXTT0=
EXTT1=
EXTT2=
EXTT3=
EXTT4=
EXTT5=
EXTT6=
EXTT7=
EXTT8=
EXTT9=
EXTT10=
EXTT11=
EXTT12=
EXTT13=
EXTT14=
EXTT15=
PLAYORDER=
